<svg width="20" height="20" viewBox="0 0 20 20" fill="none" xmlns="http://www.w3.org/2000/svg">
<g id="myLocation 1" clip-path="url(#clip0_212_35)">
<path id="Vector" d="M10 6.66665C8.15833 6.66665 6.66666 8.15831 6.66666 9.99998C6.66666 11.8416 8.15833 13.3333 10 13.3333C11.8417 13.3333 13.3333 11.8416 13.3333 9.99998C13.3333 8.15831 11.8417 6.66665 10 6.66665ZM17.45 9.16665C17.0667 5.69165 14.3083 2.93331 10.8333 2.54998V0.833313H9.16666V2.54998C5.69166 2.93331 2.93333 5.69165 2.54999 9.16665H0.833328V10.8333H2.54999C2.93333 14.3083 5.69166 17.0666 9.16666 17.45V19.1666H10.8333V17.45C14.3083 17.0666 17.0667 14.3083 17.45 10.8333H19.1667V9.16665H17.45ZM10 15.8333C6.775 15.8333 4.16666 13.225 4.16666 9.99998C4.16666 6.77498 6.775 4.16665 10 4.16665C13.225 4.16665 15.8333 6.77498 15.8333 9.99998C15.8333 13.225 13.225 15.8333 10 15.8333Z" fill="black"/>
</g>
<defs>
<clipPath id="clip0_212_35">
<rect width="20" height="20" fill="white"/>
</clipPath>
</defs>
</svg>
